<svg xmlns="http://www.w3.org/2000/svg" xmlns:xlink="http://www.w3.org/1999/xlink" width="1200" zoomAndPan="magnify" viewBox="0 0 900 262.499992" height="350" preserveAspectRatio="xMidYMid meet" version="1.0"><defs><g/></defs><path fill="rgb(1.179504%, 14.509583%, 30.589294%)" d="M 36.941406 0 L 298.941406 0 L 298.941406 262 L 36.941406 262 L 36.941406 0 " fill-opacity="1" fill-rule="nonzero"/><path fill="rgb(1.179504%, 14.509583%, 30.589294%)" d="M 274.03125 0 L 274.03125 262 L 863.15625 262 L 863.15625 0 L 274.03125 0 M 841.953125 240.796875 L 294.792969 240.796875 L 294.792969 20.761719 L 841.953125 20.761719 L 841.953125 240.796875 " fill-opacity="1" fill-rule="nonzero"/><g fill="rgb(100%, 100%, 100%)" fill-opacity="1"><g transform="translate(88.523084, 190.897665)"><g><path d="M 71.097656 -76.851562 L 71.097656 -103.769531 L 46.441406 -103.769531 L 46.441406 -138.496094 L 17.261719 -117.332031 L 17.261719 -103.769531 L 1.644531 -103.769531 L 1.644531 -76.851562 L 17.261719 -76.851562 L 17.261719 -42.945312 C 17.261719 -16.027344 39.453125 2.261719 70.480469 2.261719 L 70.480469 -26.714844 C 57.125 -26.714844 46.441406 -32.054688 46.441406 -43.769531 L 46.441406 -76.851562 Z M 71.097656 -76.851562 "/></g></g></g><g fill="rgb(100%, 100%, 100%)" fill-opacity="1"><g transform="translate(169.890026, 190.897665)"><g><path d="M 36.988281 -41.714844 C 43.5625 -40.6875 46.234375 -37.808594 46.234375 -33.699219 C 46.234375 -29.796875 43.769531 -26.714844 38.425781 -26.714844 C 33.90625 -26.714844 30.207031 -27.945312 27.125 -31.234375 L 2.464844 -13.355469 C 11.507812 -3.082031 22.808594 2.261719 38.21875 2.261719 C 60.617188 2.261719 78.085938 -12.125 78.085938 -33.289062 C 78.085938 -54.660156 63.496094 -64.523438 44.386719 -66.988281 C 35.753906 -68.015625 33.289062 -70.070312 33.289062 -73.5625 C 33.289062 -76.648438 35.550781 -78.90625 39.453125 -78.90625 C 43.359375 -78.90625 46.234375 -77.058594 48.90625 -74.589844 L 69.867188 -89.796875 C 62.46875 -100.484375 52.195312 -106.03125 38.835938 -106.03125 C 23.425781 -106.03125 4.726562 -92.675781 4.726562 -74.589844 C 4.726562 -56.917969 18.082031 -44.386719 36.988281 -41.714844 Z M 36.988281 -41.714844 "/></g></g></g><g fill="rgb(1.179504%, 14.509583%, 30.589294%)" fill-opacity="1"><g transform="translate(316.516443, 122.821167)"><g><path d="M 37.582031 -40.625 L 37.582031 -54.855469 L 24.550781 -54.855469 L 24.550781 -73.210938 L 9.125 -62.023438 L 9.125 -54.855469 L 0.867188 -54.855469 L 0.867188 -40.625 L 9.125 -40.625 L 9.125 -22.703125 C 9.125 -8.472656 20.855469 1.195312 37.257812 1.195312 L 37.257812 -14.121094 C 30.199219 -14.121094 24.550781 -16.945312 24.550781 -23.136719 L 24.550781 -40.625 Z M 37.582031 -40.625 "/></g></g></g><g fill="rgb(1.179504%, 14.509583%, 30.589294%)" fill-opacity="1"><g transform="translate(359.524178, 122.821167)"><g><path d="M 44.753906 -19.660156 C 42.253906 -15.75 37.582031 -14.121094 32.914062 -14.121094 C 31.285156 -14.121094 29.761719 -14.230469 28.351562 -14.773438 L 58.984375 -36.714844 C 55.613281 -46.925781 45.1875 -56.050781 31.609375 -56.050781 C 15.859375 -56.050781 3.148438 -43.230469 3.148438 -27.375 C 3.148438 -11.730469 16.402344 1.195312 32.914062 1.195312 C 42.6875 1.195312 52.355469 -3.257812 57.027344 -10.210938 Z M 18.792969 -27.375 C 18.792969 -35.085938 24.550781 -40.625 31.609375 -40.625 C 34.542969 -40.625 37.039062 -39.648438 39.214844 -38.019531 L 19.226562 -23.789062 C 18.902344 -24.875 18.792969 -26.070312 18.792969 -27.375 Z M 18.792969 -27.375 "/></g></g></g><g fill="rgb(1.179504%, 14.509583%, 30.589294%)" fill-opacity="1"><g transform="translate(425.447235, 122.821167)"><g><path d="M 44.644531 -25.199219 C 43.667969 -18.574219 38.34375 -14.121094 31.609375 -14.121094 C 24.550781 -14.121094 18.792969 -19.550781 18.792969 -27.375 C 18.792969 -35.085938 24.550781 -40.625 31.609375 -40.625 C 35.410156 -40.625 38.996094 -39.320312 41.820312 -35.738281 L 54.09375 -45.296875 C 48.773438 -51.8125 40.625 -56.050781 31.609375 -56.050781 C 15.859375 -56.050781 3.148438 -43.230469 3.148438 -27.375 C 3.148438 -11.730469 15.859375 1.195312 31.609375 1.195312 C 46.707031 1.195312 59.417969 -10.535156 60.503906 -25.199219 Z M 44.644531 -25.199219 "/></g></g></g><g fill="rgb(1.179504%, 14.509583%, 30.589294%)" fill-opacity="1"><g transform="translate(492.782133, 122.821167)"><g><path d="M 60.71875 -27.375 C 60.71875 -43.230469 50.292969 -56.050781 35.300781 -56.050781 C 30.304688 -56.050781 23.789062 -54.527344 20.855469 -50.945312 L 20.855469 -80.925781 L 5.429688 -80.925781 L 5.429688 0 L 20.855469 0 L 20.855469 -27.375 C 20.855469 -35.085938 27.15625 -40.625 34 -40.625 C 40.300781 -40.625 45.40625 -36.171875 45.40625 -27.375 L 45.40625 0 L 60.71875 0 Z M 60.71875 -27.375 "/></g></g></g><g fill="rgb(1.179504%, 14.509583%, 30.589294%)" fill-opacity="1"><g transform="translate(561.963312, 122.821167)"><g><path d="M 5.429688 -80.925781 L 5.429688 0 L 20.855469 0 L 20.855469 -80.925781 Z M 5.429688 -80.925781 "/></g></g></g><g fill="rgb(1.179504%, 14.509583%, 30.589294%)" fill-opacity="1"><g transform="translate(592.047236, 122.821167)"><g><path d="M 31.609375 -56.050781 C 15.859375 -56.050781 3.148438 -43.230469 3.148438 -27.375 C 3.148438 -11.730469 15.859375 1.195312 31.609375 1.195312 C 47.359375 1.195312 60.503906 -11.730469 60.503906 -27.375 C 60.503906 -43.230469 47.359375 -56.050781 31.609375 -56.050781 Z M 31.609375 -14.121094 C 24.550781 -14.121094 18.792969 -19.550781 18.792969 -27.375 C 18.792969 -35.085938 24.550781 -40.625 31.609375 -40.625 C 39.105469 -40.625 44.753906 -35.085938 44.753906 -27.375 C 44.753906 -19.550781 39.105469 -14.121094 31.609375 -14.121094 Z M 31.609375 -14.121094 "/></g></g></g><g fill="rgb(1.179504%, 14.509583%, 30.589294%)" fill-opacity="1"><g transform="translate(659.490741, 122.821167)"><g><path d="M 30.847656 12.058594 C 26.285156 12.058594 22.269531 9.667969 19.988281 5.867188 L 7.496094 14.882812 C 12.601562 22.375 21.074219 27.375 30.847656 27.375 C 46.382812 27.375 58.875 14.773438 58.875 -0.542969 L 58.875 -54.855469 L 43.449219 -54.855469 L 43.449219 -51.054688 C 41.058594 -53.660156 34.976562 -56.050781 30.089844 -56.050781 C 15.425781 -56.050781 3.148438 -43.230469 3.148438 -27.375 C 3.148438 -11.730469 15.097656 1.195312 30.089844 1.195312 C 35.085938 1.195312 41.058594 -0.761719 43.449219 -3.910156 L 43.449219 0.433594 C 43.449219 6.953125 37.910156 12.058594 30.847656 12.058594 Z M 31.609375 -14.121094 C 24.550781 -14.121094 18.792969 -19.550781 18.792969 -27.375 C 18.792969 -35.085938 24.550781 -40.625 31.609375 -40.625 C 38.777344 -40.625 44.101562 -35.085938 44.101562 -27.375 C 44.101562 -19.550781 38.777344 -14.121094 31.609375 -14.121094 Z M 31.609375 -14.121094 "/></g></g></g><g fill="rgb(1.179504%, 14.509583%, 30.589294%)" fill-opacity="1"><g transform="translate(727.585862, 122.821167)"><g><path d="M 13.035156 -64.523438 C 18.25 -64.523438 22.269531 -68.542969 22.269531 -73.320312 C 22.269531 -77.773438 18.25 -81.792969 13.035156 -81.792969 C 8.253906 -81.792969 4.128906 -77.664062 4.128906 -73.320312 C 4.128906 -68.542969 8.253906 -64.523438 13.035156 -64.523438 Z M 20.855469 -54.855469 L 5.429688 -54.855469 L 5.429688 0 L 20.855469 0 Z M 20.855469 -54.855469 "/></g></g></g><g fill="rgb(1.179504%, 14.509583%, 30.589294%)" fill-opacity="1"><g transform="translate(757.669765, 122.821167)"><g><path d="M 44.644531 -25.199219 C 43.667969 -18.574219 38.34375 -14.121094 31.609375 -14.121094 C 24.550781 -14.121094 18.792969 -19.550781 18.792969 -27.375 C 18.792969 -35.085938 24.550781 -40.625 31.609375 -40.625 C 35.410156 -40.625 38.996094 -39.320312 41.820312 -35.738281 L 54.09375 -45.296875 C 48.773438 -51.8125 40.625 -56.050781 31.609375 -56.050781 C 15.859375 -56.050781 3.148438 -43.230469 3.148438 -27.375 C 3.148438 -11.730469 15.859375 1.195312 31.609375 1.195312 C 46.707031 1.195312 59.417969 -10.535156 60.503906 -25.199219 Z M 44.644531 -25.199219 "/></g></g></g><g fill="rgb(1.179504%, 14.509583%, 30.589294%)" fill-opacity="1"><g transform="translate(316.516443, 211.271583)"><g><path d="M 19.550781 -22.050781 C 23.027344 -21.507812 24.441406 -19.988281 24.441406 -17.8125 C 24.441406 -15.75 23.136719 -14.121094 20.3125 -14.121094 C 17.921875 -14.121094 15.96875 -14.773438 14.339844 -16.511719 L 1.304688 -7.058594 C 6.082031 -1.628906 12.058594 1.195312 20.203125 1.195312 C 32.042969 1.195312 41.277344 -6.410156 41.277344 -17.597656 C 41.277344 -28.894531 33.566406 -34.109375 23.460938 -35.410156 C 18.902344 -35.953125 17.597656 -37.039062 17.597656 -38.886719 C 17.597656 -40.515625 18.792969 -41.710938 20.855469 -41.710938 C 22.917969 -41.710938 24.441406 -40.734375 25.851562 -39.429688 L 36.933594 -47.46875 C 33.023438 -53.117188 27.589844 -56.050781 20.53125 -56.050781 C 12.382812 -56.050781 2.5 -48.988281 2.5 -39.429688 C 2.5 -30.089844 9.558594 -23.460938 19.550781 -22.050781 Z M 19.550781 -22.050781 "/></g></g></g><g fill="rgb(1.179504%, 14.509583%, 30.589294%)" fill-opacity="1"><g transform="translate(363.976911, 211.271583)"><g><path d="M 37.582031 -40.625 L 37.582031 -54.855469 L 24.550781 -54.855469 L 24.550781 -73.210938 L 9.125 -62.023438 L 9.125 -54.855469 L 0.867188 -54.855469 L 0.867188 -40.625 L 9.125 -40.625 L 9.125 -22.703125 C 9.125 -8.472656 20.855469 1.195312 37.257812 1.195312 L 37.257812 -14.121094 C 30.199219 -14.121094 24.550781 -16.945312 24.550781 -23.136719 L 24.550781 -40.625 Z M 37.582031 -40.625 "/></g></g></g><g fill="rgb(1.179504%, 14.509583%, 30.589294%)" fill-opacity="1"><g transform="translate(406.984646, 211.271583)"><g><path d="M 31.609375 -56.050781 C 15.859375 -56.050781 3.148438 -43.230469 3.148438 -27.375 C 3.148438 -11.730469 15.859375 1.195312 31.609375 1.195312 C 47.359375 1.195312 60.503906 -11.730469 60.503906 -27.375 C 60.503906 -43.230469 47.359375 -56.050781 31.609375 -56.050781 Z M 31.609375 -14.121094 C 24.550781 -14.121094 18.792969 -19.550781 18.792969 -27.375 C 18.792969 -35.085938 24.550781 -40.625 31.609375 -40.625 C 39.105469 -40.625 44.753906 -35.085938 44.753906 -27.375 C 44.753906 -19.550781 39.105469 -14.121094 31.609375 -14.121094 Z M 31.609375 -14.121094 "/></g></g></g><g fill="rgb(1.179504%, 14.509583%, 30.589294%)" fill-opacity="1"><g transform="translate(474.428159, 211.271583)"><g><path d="M 36.824219 -55.832031 C 35.410156 -56.050781 34.324219 -56.050781 33.023438 -56.050781 C 28.785156 -56.050781 24.222656 -54.636719 20.855469 -51.054688 L 20.855469 -54.855469 L 5.429688 -54.855469 L 5.429688 0 L 20.855469 0 L 20.855469 -27.375 C 20.855469 -36.171875 25.960938 -40.625 31.933594 -40.625 C 33.671875 -40.625 35.300781 -40.40625 36.824219 -39.863281 Z M 36.824219 -55.832031 "/></g></g></g><g fill="rgb(1.179504%, 14.509583%, 30.589294%)" fill-opacity="1"><g transform="translate(516.458476, 211.271583)"><g><path d="M 44.753906 -19.660156 C 42.253906 -15.75 37.582031 -14.121094 32.914062 -14.121094 C 31.285156 -14.121094 29.761719 -14.230469 28.351562 -14.773438 L 58.984375 -36.714844 C 55.613281 -46.925781 45.1875 -56.050781 31.609375 -56.050781 C 15.859375 -56.050781 3.148438 -43.230469 3.148438 -27.375 C 3.148438 -11.730469 16.402344 1.195312 32.914062 1.195312 C 42.6875 1.195312 52.355469 -3.257812 57.027344 -10.210938 Z M 18.792969 -27.375 C 18.792969 -35.085938 24.550781 -40.625 31.609375 -40.625 C 34.542969 -40.625 37.039062 -39.648438 39.214844 -38.019531 L 19.226562 -23.789062 C 18.902344 -24.875 18.792969 -26.070312 18.792969 -27.375 Z M 18.792969 -27.375 "/></g></g></g></svg>