<svg id="Capa_1" data-name="Capa 1" xmlns="http://www.w3.org/2000/svg" viewBox="0 0 1905.32 604.19"><defs><style>.cls-1{fill:#fff;}.cls-2{fill:#03254e;}</style></defs><title>logo-oscuro</title><polygon class="cls-1" points="572.77 19.63 1880.13 19.63 1880.13 572.88 546.75 572.88 572.77 19.63"/><path class="cls-2" d="M47.34,697.9H651.53v604.2H47.34V697.9" transform="translate(-47.34 -697.9)"/><path class="cls-2" d="M594.09,697.9v604.2H1952.66V697.9H594.09m1309.68,555.3H642V745.78h1261.8V1253.2" transform="translate(-47.34 -697.9)"/><path class="cls-1" d="M330.25,960.9V898.83H273.39V818.75l-67.29,48.8v31.28h-36V960.9h36v78.19c0,62.08,51.17,104.25,122.72,104.25v-66.82c-30.79,0-55.43-12.31-55.43-39.33V960.9Z" transform="translate(-47.34 -697.9)"/><path class="cls-1" d="M439.23,1041.93c15.16,2.37,21.32,9,21.32,18.49,0,9-5.68,16.1-18,16.1-10.42,0-19-2.84-26.06-10.42l-56.87,41.23c20.86,23.69,46.92,36,82.46,36,51.65,0,91.93-33.17,91.93-82,0-49.28-33.64-72-77.71-77.71-19.91-2.37-25.59-7.11-25.59-15.16,0-7.12,5.21-12.33,14.21-12.33s15.64,4.27,21.8,10l48.34-35.07C498,906.4,474.3,893.61,443.49,893.61c-35.54,0-78.66,30.8-78.66,72.51C364.83,1006.87,395.63,1035.77,439.23,1041.93Z" transform="translate(-47.34 -697.9)"/><path class="cls-2" d="M778.73,887.45V854.64H748.68V812.31l-35.57,25.8v16.53H694.06v32.81h19.05v41.33c0,32.82,27,55.12,64.87,55.12V948.57c-16.28,0-29.3-6.51-29.3-20.79V887.45Z" transform="translate(-47.34 -697.9)"/><path class="cls-2" d="M894.45,935.8c-5.77,9-16.54,12.77-27.31,12.77a29,29,0,0,1-10.52-1.5l70.65-50.6c-7.78-23.55-31.82-44.59-63.13-44.59-36.32,0-65.64,29.57-65.64,66.13,0,36.08,30.57,65.89,68.64,65.89,22.54,0,44.84-10.27,55.61-26.31ZM834.58,918c0-17.78,13.28-30.56,29.56-30.56a28.63,28.63,0,0,1,17.54,6l-46.1,32.82A28.86,28.86,0,0,1,834.58,918Z" transform="translate(-47.34 -697.9)"/><path class="cls-2" d="M1046.22,923c-2.25,15.28-14.53,25.54-30.06,25.54-16.28,0-29.56-12.52-29.56-30.56,0-17.78,13.28-30.56,29.56-30.56,8.77,0,17,3,23.55,11.27l28.3-22a67.11,67.11,0,0,0-51.85-24.8c-36.32,0-65.63,29.57-65.63,66.13,0,36.08,29.31,65.89,65.63,65.89,34.82,0,64.13-27.06,66.63-60.87Z" transform="translate(-47.34 -697.9)"/><path class="cls-2" d="M1238.57,918c0-36.56-24-66.13-58.62-66.13-11.52,0-26.54,3.51-33.31,11.77V794.52h-35.57V981.14h35.57V918A30.47,30.47,0,0,1,1177,887.45c14.53,0,26.31,10.27,26.31,30.56v63.13h35.31Z" transform="translate(-47.34 -697.9)"/><path class="cls-2" d="M1270.61,794.52V981.14h35.57V794.52Z" transform="translate(-47.34 -697.9)"/><path class="cls-2" d="M1400.35,851.88c-36.32,0-65.63,29.57-65.63,66.13,0,36.08,29.31,65.89,65.63,65.89S1467,954.09,1467,918C1467,881.45,1436.68,851.88,1400.35,851.88Zm0,96.69c-16.27,0-29.55-12.52-29.55-30.56,0-17.78,13.28-30.56,29.55-30.56,17.29,0,30.32,12.78,30.32,30.56C1430.67,936.05,1417.64,948.57,1400.35,948.57Z" transform="translate(-47.34 -697.9)"/><path class="cls-2" d="M1554.13,1009a29,29,0,0,1-25-14.28l-28.81,20.79a64.67,64.67,0,0,0,118.48-35.57V854.64h-35.57v8.76c-5.51-6-19.54-11.52-30.81-11.52-33.82,0-62.13,29.57-62.13,66.13,0,36.08,27.56,65.89,62.13,65.89,11.52,0,25.3-4.52,30.81-11.78v10C1583.19,997.17,1570.42,1009,1554.13,1009Zm1.76-60.38c-16.28,0-29.56-12.52-29.56-30.56,0-17.78,13.28-30.56,29.56-30.56,16.53,0,28.8,12.78,28.8,30.56C1584.69,936.05,1572.42,948.57,1555.89,948.57Z" transform="translate(-47.34 -697.9)"/><path class="cls-2" d="M1670.09,832.34c12,0,21.29-9.27,21.29-20.28,0-10.27-9.27-19.54-21.29-19.54-11,0-20.54,9.52-20.54,19.54C1649.55,823.07,1659.06,832.34,1670.09,832.34Zm18,22.3h-35.57v126.5h35.57Z" transform="translate(-47.34 -697.9)"/><path class="cls-2" d="M1812.36,923c-2.26,15.28-14.54,25.54-30.07,25.54-16.27,0-29.55-12.52-29.55-30.56,0-17.78,13.28-30.56,29.55-30.56,8.77,0,17,3,23.55,11.27l28.31-22a67.11,67.11,0,0,0-51.86-24.8c-36.32,0-65.63,29.57-65.63,66.13,0,36.08,29.31,65.89,65.63,65.89,34.82,0,64.13-27.06,66.64-60.87Z" transform="translate(-47.34 -697.9)"/><path class="cls-2" d="M737.15,1134.26c8,1.25,11.28,4.76,11.28,9.78,0,4.75-3,8.51-9.52,8.51-5.52,0-10-1.51-13.78-5.51l-30.06,21.8c11,12.52,24.8,19,43.58,19,27.31,0,48.6-17.54,48.6-43.34,0-26-17.78-38.08-41.08-41.08-10.52-1.25-13.53-3.75-13.53-8,0-3.76,2.76-6.52,7.52-6.52s8.27,2.26,11.52,5.26l25.55-18.53c-9-13-21.54-19.79-37.82-19.79-18.79,0-41.58,16.28-41.58,38.32C697.83,1115.72,714.11,1131,737.15,1134.26Z" transform="translate(-47.34 -697.9)"/><path class="cls-2" d="M888.18,1091.43v-32.82h-30v-42.33l-35.58,25.8v16.53h-19v32.82h19v41.33c0,32.81,27.06,55.11,64.88,55.11v-35.32c-16.28,0-29.3-6.51-29.3-20.79v-40.33Z" transform="translate(-47.34 -697.9)"/><path class="cls-2" d="M973.58,1055.86c-36.32,0-65.63,29.56-65.63,66.12,0,36.08,29.31,65.89,65.63,65.89s66.64-29.81,66.64-65.89C1040.22,1085.42,1009.91,1055.86,973.58,1055.86Zm0,96.69C957.31,1152.55,944,1140,944,1122c0-17.78,13.28-30.55,29.55-30.55,17.29,0,30.32,12.77,30.32,30.55C1003.9,1140,990.87,1152.55,973.58,1152.55Z" transform="translate(-47.34 -697.9)"/><path class="cls-2" d="M1141.14,1056.36a53,53,0,0,0-8.76-.5c-9.78,0-20.3,3.26-28.06,11.52v-8.77h-35.58v126.5h35.58V1122c0-20.28,11.77-30.55,25.54-30.55a33.1,33.1,0,0,1,11.28,1.76Z" transform="translate(-47.34 -697.9)"/><path class="cls-2" d="M1256.35,1139.78c-5.76,9-16.54,12.77-27.3,12.77a28.76,28.76,0,0,1-10.52-1.51l70.64-50.59c-7.77-23.55-31.82-44.59-63.13-44.59-36.32,0-65.63,29.56-65.63,66.12,0,36.08,30.56,65.89,68.64,65.89,22.54,0,44.83-10.27,55.61-26.3Zm-59.87-17.8c0-17.78,13.28-30.55,29.56-30.55a28.55,28.55,0,0,1,17.54,6l-46.1,32.81A29.17,29.17,0,0,1,1196.48,1122Z" transform="translate(-47.34 -697.9)"/></svg>