<svg xmlns="http://www.w3.org/2000/svg" xmlns:xlink="http://www.w3.org/1999/xlink" width="500" zoomAndPan="magnify" viewBox="0 0 375 374.999991" height="500" preserveAspectRatio="xMidYMid meet" version="1.0"><defs><g/></defs><rect x="-37.5" width="450" fill="#03254e" y="-37.499999" height="449.999989" fill-opacity="1"/><g fill="#ffffff" fill-opacity="1"><g transform="translate(59.971141, 289.090192)"><g><path d="M 111.78125 -120.828125 L 111.78125 -163.148438 L 73.011719 -163.148438 L 73.011719 -217.75 L 27.136719 -184.472656 L 27.136719 -163.148438 L 2.585938 -163.148438 L 2.585938 -120.828125 L 27.136719 -120.828125 L 27.136719 -67.519531 C 27.136719 -25.199219 62.027344 3.554688 110.8125 3.554688 L 110.8125 -42 C 89.8125 -42 73.011719 -50.398438 73.011719 -68.8125 L 73.011719 -120.828125 Z M 111.78125 -120.828125 "/></g></g></g><g fill="#ffffff" fill-opacity="1"><g transform="translate(187.897299, 289.090192)"><g><path d="M 58.152344 -65.582031 C 68.492188 -63.96875 72.691406 -59.445312 72.691406 -52.984375 C 72.691406 -46.84375 68.8125 -42 60.414062 -42 C 53.304688 -42 47.492188 -43.9375 42.644531 -49.105469 L 3.875 -21 C 18.09375 -4.847656 35.859375 3.554688 60.089844 3.554688 C 95.304688 3.554688 122.765625 -19.0625 122.765625 -52.335938 C 122.765625 -85.9375 99.828125 -101.445312 69.78125 -105.320312 C 56.214844 -106.9375 52.335938 -110.167969 52.335938 -115.660156 C 52.335938 -120.503906 55.890625 -124.058594 62.027344 -124.058594 C 68.167969 -124.058594 72.691406 -121.152344 76.890625 -117.273438 L 109.84375 -141.179688 C 98.214844 -157.980469 82.058594 -166.703125 61.058594 -166.703125 C 36.828125 -166.703125 7.429688 -145.703125 7.429688 -117.273438 C 7.429688 -89.488281 28.429688 -69.78125 58.152344 -65.582031 Z M 58.152344 -65.582031 "/></g></g></g></svg>